# xmcd
#
# Track frame offsets: 
#        150
#        14337
#        26830
#        38462
#        49983
#        73852
#        87668
#        104998
#        115697
#        134967
#        151408
#        165961
#        177589
#        194129
#        209507
#        218793
#        234401
#        247010
#        261057
#        273547
#        293548
#
# Disc length: 3995 seconds
#
# Revision: 0
# Processed by: cddbd v1.5.2PL0 Copyright (c) Steve Scherf et al.
# Submitted via: ExactAudioCopy v1.0b1
#
DISCID=4a0f9915
DTITLE=Matuška Waldemar - Singly 1
DYEAR=2012
DGENRE=Country
TTITLE0=Padá hvězda
TTITLE1=Já bych si rád najal dům
TTITLE2=Čtyři koňský kopyta
TTITLE3=Dobrou noc
TTITLE4=Víc nechtěl by snad ani d'Artagnan
TTITLE5=Příboj
TTITLE6=Volám déšť
TTITLE7=Polykat hvězdy
TTITLE8=Až otevřeš okno
TTITLE9=To se nikdo nedoví
TTITLE10=Má živá voda
TTITLE11=Píseň hazardního hráče
TTITLE12=Bouřka
TTITLE13=Rudý páv
TTITLE14=Hou a hou
TTITLE15=Čas schvátá
TTITLE16=Bůhví, odhud já tuhle písničku znám
TTITLE17=Úžasná láska
TTITLE18=Cigarettes And Whisky
TTITLE19=Vítr to ví
TTITLE20=Ó, zuzano
EXTD=
EXTT0=
EXTT1=
EXTT2=
EXTT3=
EXTT4=
EXTT5=
EXTT6=
EXTT7=
EXTT8=
EXTT9=
EXTT10=
EXTT11=
EXTT12=
EXTT13=
EXTT14=
EXTT15=
EXTT16=
EXTT17=
EXTT18=
EXTT19=
EXTT20=
PLAYORDER=
